<svg width="200" height="150" xmlns="http://www.w3.org/2000/svg">
 <title>Drawing</title>

 <g id="Layer_1">
  <title>Layer 1</title>
  <rect fill="#fff" stroke="#000" x="-639" y="-411" width="238" height="134" id="svg_1"/>
  <rect fill="#fff" stroke="#000" x="-201" y="-440" width="90" height="124" id="svg_2"/>
  <rect fill="#fff" stroke="#000" x="-363" y="-437" width="123" height="45" id="svg_3"/>
  <rect fill="#fff" stroke="#000" x="-594" y="-487" width="129" height="6" id="svg_4"/>
  <rect fill="#fff" stroke="#000" x="-471" y="-450" width="3" height="2" id="svg_5"/>
  <rect fill="#fff" stroke="#000" x="-468" y="-450" width="0" height="2" id="svg_6"/>
  <rect fill="#fff" stroke="#000" x="-565" y="-517" width="73" height="44" id="svg_7"/>
  <path fill="#fff" stroke="#000" d="m-504.46011,-357.19997l0,0c0,-5.4952 1.79553,-9.94994 4.01042,-9.94994l1.82292,0l0,0l8.75,0l16.40625,0c1.06363,0 2.0837,1.04829 2.8358,2.91427c0.7521,1.86598 1.17462,4.39678 1.17462,7.03567l0,24.87485l0,0l0,14.92491l0,0c0,5.4952 -1.79552,9.94994 -4.01042,9.94994l-16.40625,0l-11.4308,25.30038l2.6808,-25.30038l-1.82292,0c-2.21489,0 -4.01042,-4.45474 -4.01042,-9.94994l0,0l0,-14.92491l0,0l0,-24.87485z" id="svg_8"/>
  <path stroke-width="2" id="svg_9" d="m199.00116,18.20763l0,0c0,-9.50351 -10.1576,-17.20763 -22.68763,-17.20763l-10.31256,0l0,0l-49.50029,0l-92.81303,0c-6.01715,0 -11.78783,1.81294 -16.0426,5.04c-4.25474,3.22706 -6.64504,7.60389 -6.64504,12.16763l0,43.01908l0,0l0,25.81144l0,0c0,9.50352 10.15759,17.20763 22.68764,17.20763l92.81303,0l64.66603,43.75501l-15.16573,-43.75501l10.31256,0c12.53003,0 22.68763,-7.70411 22.68763,-17.20763l0,0l0,-25.81144l0,0l0.00001,-43.01908z" stroke="#000" fill="#fff"/>
 </g>
</svg>