<svg xmlns="http://www.w3.org/2000/svg" xmlns:xlink="http://www.w3.org/1999/xlink" version="1.1" width="150"
	 height="127.63419" viewBox="0 0 1000 1000" xml:space="preserve">



<g transform="matrix(-6.0606 0 0 6.0606 499.9995 499.9996)" id="645622">


<g transform="matrix(3.8479 0 0 3.8479 -4.8096 -8.2474)" id="path3897">
<path
	style="fill:#ffffff;fill opacity:1;stroke:#000000;stroke-width:3;stroke-linecap:round;stroke-linejoin:round;stroke-opacity:1"
	transform=" translate(-394.625, -211.4688)"
	d="m 380.625 198.375 c -1.108 0 -2 0.8229 -2 1.84375 l 0 16.8125 c 0 1.02085 0.892 1.84375 2 1.84375 l 1.1875 0 c -0.44149 1.94591 -1.39306 3.82125 -2.3125 5.6875 c 2.3645 -1.62743 4.14796 -3.39999 5.6875 -5.6875 l 0.0937 0 l 23.34375 0 c 1.108 0 2 -0.8229 2 -1.84375 l 0 -16.8125 c 0 -1.02085 -0.892 -1.84375 -2 -1.84375 l -28 0 z"
	stroke-linecap="round"/>
</g>

<!--<text font-size="10" fill="black">Hallo</text>-->

</g>

</svg>
